<?xml version="1.0" encoding="UTF-8"?>
<svg width="128px" height="128px" viewBox="0 0 128 128" version="1.1" xmlns="http://www.w3.org/2000/svg" xmlns:xlink="http://www.w3.org/1999/xlink">
    <!-- Generator: Sketch 48.2 (47327) - http://www.bohemiancoding.com/sketch -->
    <title>logo</title>
    <desc>Created with Sketch.</desc>
    <defs></defs>
    <g id="Page-1" stroke="none" stroke-width="1" fill="none" fill-rule="evenodd">
        <g id="logo" fill="#ED1C24">
            <path d="M64,128 C28.653776,128 0,99.346224 0,64 C0,28.653776 28.653776,0 64,0 C99.346224,0 128,28.653776 128,64 C128,99.346224 99.346224,128 64,128 Z M61.73696,69.21216 L44.04224,36.32128 C43.8237856,35.911678 43.5916812,35.5840012 43.34592,35.33824 C43.1001588,35.0924788 42.8339214,34.9149872 42.5472,34.80576 C42.2604786,34.6965328 41.9396284,34.6282668 41.58464,34.60096 C41.2296516,34.5736532 40.8064025,34.56 40.31488,34.56 L32,34.56 L32,93.78816 L41.70752,93.78816 L41.70752,55.53152 C41.70752,54.7942363 41.6870402,53.9955243 41.64608,53.13536 C41.6051198,52.2751957 41.5300272,51.3945645 41.4208,50.49344 L59.56608,84.20352 C59.975682,84.9681105 60.5081567,85.5620246 61.16352,85.98528 C61.8188833,86.4085354 62.5834623,86.62016 63.45728,86.62016 L64.9728,86.62016 C65.8466177,86.62016 66.6111967,86.4085354 67.26656,85.98528 C67.9219233,85.5620246 68.454398,84.9681105 68.864,84.20352 L86.76352,50.61632 C86.6815996,51.4901377 86.6201602,52.3502891 86.5792,53.1968 C86.5382398,54.0433109 86.51776,54.8215431 86.51776,55.53152 L86.51776,93.78816 L96.22528,93.78816 L96.22528,34.56 L87.9104,34.56 C87.4188775,34.56 86.9956284,34.5736532 86.64064,34.60096 C86.2856516,34.6282668 85.9648014,34.6965328 85.67808,34.80576 C85.3913586,34.9149872 85.1319478,35.0924788 84.89984,35.33824 C84.6677322,35.5840012 84.4424544,35.911678 84.224,36.32128 L66.69312,69.13024 C66.2289043,70.0040577 65.792002,70.9188219 65.3824,71.87456 C64.972798,72.8302981 64.5768552,73.7996751 64.19456,74.78272 C63.8122648,73.8269819 63.4231486,72.8780847 63.0272,71.936 C62.6312514,70.9939153 62.2011757,70.0859777 61.73696,69.21216 Z"></path>
        </g>
    </g>
</svg>